<svg xmlns="http://www.w3.org/2000/svg" xmlns:xlink="http://www.w3.org/1999/xlink" width="500" zoomAndPan="magnify" viewBox="0 0 375 374.999991" height="500" preserveAspectRatio="xMidYMid meet" version="1.2"><defs><clipPath id="496bebcfd3"><path d="M 112.660156 126.546875 L 262.335938 126.546875 L 262.335938 248.792969 L 112.660156 248.792969 Z M 112.660156 126.546875 "/></clipPath></defs><g id="4943f90f80"><g clip-rule="nonzero" clip-path="url(#496bebcfd3)"><path style=" stroke:none;fill-rule:nonzero;fill:#3853a1;fill-opacity:1;" d="M 258.097656 154.945312 C 257.515625 155.925781 255.296875 159.367188 253.800781 161.507812 L 197.746094 241.628906 C 195.453125 244.90625 190.171875 247.265625 186.207031 246.777344 L 133.984375 240.363281 C 133.933594 240.355469 128.984375 239.867188 121.492188 238.828125 C 117.605469 238.289062 115.921875 234.769531 115.1875 231.902344 C 115.988281 232.351562 116.957031 232.65625 118.0625 232.792969 L 182.792969 240.746094 C 183.21875 240.796875 183.664062 240.824219 184.117188 240.824219 C 188.644531 240.824219 193.710938 238.28125 196.160156 234.78125 L 259.953125 143.597656 C 260.039062 143.472656 260.125 143.347656 260.203125 143.21875 C 260.578125 146.429688 260.484375 150.964844 258.097656 154.945312 Z M 261.195312 138.449219 C 261.132812 138.210938 261.050781 137.976562 260.953125 137.75 C 260.175781 136.003906 258.402344 134.875 255.949219 134.574219 L 191.21875 126.621094 C 190.792969 126.570312 190.347656 126.542969 189.894531 126.542969 C 185.363281 126.542969 180.300781 129.085938 177.847656 132.585938 L 114.058594 223.769531 C 113.015625 225.261719 112.546875 226.78125 112.683594 228.175781 C 112.742188 232.175781 114.59375 239.84375 121.226562 240.761719 C 128.761719 241.808594 133.742188 242.300781 133.769531 242.304688 L 185.96875 248.714844 C 186.394531 248.765625 186.828125 248.792969 187.273438 248.792969 C 191.703125 248.792969 196.882812 246.261719 199.339844 242.75 L 255.390625 162.628906 C 256.820312 160.589844 259.09375 157.078125 259.769531 155.953125 C 264.316406 148.351562 261.503906 139.367188 261.195312 138.449219 "/></g><path style=" stroke:none;fill-rule:nonzero;fill:#fbfefe;fill-opacity:1;" d="M 244.914062 146.660156 L 186.363281 139.644531 C 182.957031 139.222656 178.554688 141.1875 176.582031 144.007812 L 126.484375 215.617188 C 124.511719 218.4375 125.6875 221.085938 129.09375 221.503906 L 187.644531 228.523438 C 191.054688 228.941406 195.457031 226.976562 197.425781 224.160156 L 247.527344 152.546875 C 249.496094 149.726562 248.324219 147.078125 244.914062 146.660156 "/><path style=" stroke:none;fill-rule:nonzero;fill:#a0e0f4;fill-opacity:1;" d="M 240.570312 152.582031 C 236.058594 153.253906 231.222656 153.605469 226.871094 155.046875 C 224.625 155.792969 221.980469 156.820312 220.4375 158.742188 C 218.996094 160.535156 218.785156 162.539062 217.960938 164.585938 C 215.761719 170.027344 211.277344 173.0625 205.78125 174.683594 C 200.296875 176.296875 193.597656 176.621094 188.792969 179.964844 C 185.398438 182.328125 184.339844 185.785156 183.886719 189.757812 C 183.585938 192.390625 183.269531 195.398438 181.253906 197.355469 C 175.308594 203.113281 166.109375 202.480469 158.550781 203.902344 C 149.960938 205.515625 140.277344 207.679688 132.632812 212.082031 C 131.226562 212.890625 128.257812 214.585938 125.929688 216.585938 C 124.816406 219.019531 126.078125 221.132812 129.09375 221.503906 L 187.644531 228.523438 C 191.054688 228.941406 195.457031 226.976562 197.425781 224.160156 L 247.527344 152.546875 C 247.78125 152.179688 247.984375 151.816406 248.136719 151.460938 C 245.613281 151.832031 243.089844 152.207031 240.570312 152.582031 "/><path style=" stroke:none;fill-rule:nonzero;fill:#a0e0f4;fill-opacity:1;" d="M 166.558594 230.851562 L 138.539062 227.441406 C 138.195312 227.394531 137.859375 227.652344 137.816406 228.007812 C 137.773438 228.363281 138.027344 228.691406 138.382812 228.734375 L 166.402344 232.144531 C 166.429688 232.148438 166.453125 232.152344 166.480469 232.152344 C 166.804688 232.152344 167.085938 231.90625 167.125 231.578125 C 167.167969 231.21875 166.914062 230.894531 166.558594 230.851562 "/><path style=" stroke:none;fill-rule:nonzero;fill:#a0e0f4;fill-opacity:1;" d="M 214.355469 139.265625 C 215.585938 139.003906 216.738281 137.847656 216.929688 136.6875 C 217.117188 135.527344 216.273438 134.800781 215.042969 135.0625 C 213.8125 135.324219 212.65625 136.480469 212.46875 137.640625 C 212.277344 138.800781 213.125 139.527344 214.355469 139.265625 "/><path style=" stroke:none;fill-rule:nonzero;fill:#a0e0f4;fill-opacity:1;" d="M 189.332031 134.261719 L 204.511719 136.1875 C 204.539062 136.191406 204.566406 136.195312 204.59375 136.195312 C 204.917969 136.195312 205.195312 135.953125 205.238281 135.625 C 205.28125 135.269531 205.03125 134.941406 204.675781 134.898438 L 189.496094 132.972656 C 189.140625 132.925781 188.8125 133.179688 188.769531 133.535156 C 188.722656 133.894531 188.976562 134.21875 189.332031 134.261719 "/><path style=" stroke:none;fill-rule:nonzero;fill:#a0e0f4;fill-opacity:1;" d="M 228.074219 139.050781 L 246.859375 141.332031 C 246.886719 141.332031 246.914062 141.335938 246.941406 141.335938 C 247.265625 141.335938 247.542969 141.09375 247.582031 140.761719 C 247.625 140.40625 247.371094 140.082031 247.015625 140.039062 L 228.230469 137.757812 C 227.867188 137.714844 227.550781 137.96875 227.507812 138.324219 C 227.464844 138.683594 227.71875 139.007812 228.074219 139.050781 "/></g></svg>